<svg xmlns="http://www.w3.org/2000/svg" xmlns:svg="http://www.w3.org/2000/svg" xmlns:xlink="http://www.w3.org/1999/xlink" version="1.0" height="1161pt" width="830pt" viewBox="135 147 838 1167" ><defs><style type="text/css">
            @font-face {
                font-family: 'noto_regular';
                src: url('https://app.creately.com/diagram/assets/fonts/noto/noto-regular.woff') format('woff'),
                     url('https://app.creately.com/diagram/assets/fonts/noto/noto-regular.woff2') format('woff2');
                font-weight: normal;
                font-style: normal;
            }
        p {
            margin: 0;
        }
        </style></defs><defs><style>
            span{ display: inline-block; }
        </style></defs><g id="1so6zxcfln"><g transform="translate(565 150)"><path d="M 15,30 L 15,30 L 15.000000000000002,30 A 15 15 0 0 1 0 15.000000000000002 L 0,15 L 0,15.000000000000002 A 15 15 0 0 1 15.000000000000002 0 L 55,0 L 55,0 L 55,0 A 15 15 0 0 1 70 15 L 70,15 L 70,15 A 15 15 0 0 1 55 30 L 15,30 Z" fill="rgba(249,104,114,1)" stroke="#e85861" stroke-width="1" stroke-linecap="round" stroke-linejoin="round"/></g><g transform="translate(584.5, 155.5) rotate(0, 15.5, 9.5)" width="31" height="19"><text text-decoration="none" x="1" fill="rgb(255, 255, 255)" font-size="10pt" font-family="Lato"  y="17">Start</text><text text-decoration="none" x="30" fill="#4b4b4b" font-size="10pt" font-family="noto_regular"  y="17"></text></g></g><g id="1k6vomvisx"><g transform="translate(475.05 250)"><path d="M 234.50001525878903,88.99374999999999 L 234.50001525878903,0.5 L 0.5,0.5 L 0.5,88.99374999999999 Q 58.75000381469726,115.20625 117.50000762939452,89.49374999999999 Q 176.25001144409177,63.28125 234.00001525878903,89.49374999999999" fill="rgb(62, 139, 185)" stroke="rgb(54, 125, 165)" stroke-width="1" stroke-linecap="round" stroke-linejoin="round"/></g><g transform="translate(469.5500071525573, 264.55) rotate(0, 123, 0)" width="246" height="55"><text text-decoration="none" x="15" fill="#ffffff" font-size="11pt" font-family="Lato"  y="16">Start&#160;</text><text text-decoration="none" x="51" fill="#ffffff" font-size="11pt" font-family="Lato"  y="16">Writing&#160;&#160;</text><text text-decoration="none" x="109" fill="#ffffff" font-size="11pt" font-family="Lato"  y="16">Document&#160;</text><text text-decoration="none" x="185" fill="#ffffff" font-size="11pt" font-family="Lato"  y="16">for&#160;</text><text text-decoration="none" x="209" fill="#ffffff" font-size="11pt" font-family="Lato"  y="16">QA</text><text text-decoration="none" x="231" fill="#ffffff" font-size="11pt" font-family="Lato"  y="16"></text><text text-decoration="none" x="12" fill="#ffffff" font-size="11pt" font-family="Lato"  y="37">internal&#160;</text><text text-decoration="none" x="69" fill="#ffffff" font-size="11pt" font-family="Lato"  y="37">Use.&#160;</text><text text-decoration="none" x="103" fill="#ffffff" font-size="11pt" font-family="Lato"  y="37">Name&#160;</text><text text-decoration="none" x="148" fill="#ffffff" font-size="11pt" font-family="Lato"  y="37">it&#160;</text><text text-decoration="none" x="161" fill="#ffffff" font-size="11pt" font-family="Lato"  y="37">As&#160;</text><text text-decoration="none" x="182" fill="#ffffff" font-size="11pt" font-family="Lato"  y="37">DEFECT</text><text text-decoration="none" x="234" fill="#ffffff" font-size="11pt" font-family="Lato"  y="37"></text><text text-decoration="none" x="81" fill="#ffffff" font-size="11pt" font-family="Lato"  y="59">or&#160;</text><text text-decoration="none" x="100" fill="#ffffff" font-size="11pt" font-family="Lato"  y="59">SR&#160;</text><text text-decoration="none" x="121" fill="#ffffff" font-size="11pt" font-family="Lato"  y="59">####&#160;</text><text text-decoration="none" x="165" fill="#4b4b4b" font-size="10pt" font-family="noto_regular"  y="59"></text></g></g><g id="cs3v1ru8cr"><g transform="translate(540 440)"><rect x="0" y="0" width="101" height="51" fill="rgba(62,139,185,1)" stroke="#367da5" stroke-width="1" stroke-linecap="round" stroke-linejoin="round"/></g><g transform="translate(540, 456) rotate(0, 50.5, 9.5)" width="101" height="19"><text text-decoration="none" x="4.5" fill="rgb(255, 255, 255)" font-size="10pt" font-family="Lato"  y="17">Start&#160;</text><text text-decoration="none" x="36.5" fill="rgb(255, 255, 255)" font-size="10pt" font-family="Lato"  y="17">code&#160;</text><text text-decoration="none" x="68.5" fill="rgb(255, 255, 255)" font-size="10pt" font-family="Lato"  y="17">fixes</text><text text-decoration="none" x="96.5" fill="#4b4b4b" font-size="10pt" font-family="noto_regular"  y="17"></text></g></g><g id="2488eptmy3"><g transform="translate(540 580)"><rect x="0" y="0" width="101" height="51" fill="rgba(62,139,185,1)" stroke="#367da5" stroke-width="1" stroke-linecap="round" stroke-linejoin="round"/></g><g transform="translate(559, 596) rotate(0, 31.5, 9.5)" width="63" height="19"><text text-decoration="none" x="3.5" fill="rgb(255, 255, 255)" font-size="10pt" font-family="Lato"  y="17">Unit&#160;</text><text text-decoration="none" x="31.5" fill="rgb(255, 255, 255)" font-size="10pt" font-family="Lato"  y="17">TEST</text><text text-decoration="none" x="59.5" fill="#4b4b4b" font-size="10pt" font-family="noto_regular"  y="17"></text></g></g><g id="271zbxr45o"><g transform="translate(540 720)"><rect x="0" y="0" width="101" height="51" fill="rgba(62,139,185,1)" stroke="#367da5" stroke-width="1" stroke-linecap="round" stroke-linejoin="round"/></g><g transform="translate(548.5, 736) rotate(0, 42, 9.5)" width="84" height="19"><text text-decoration="none" x="4" fill="rgb(255, 255, 255)" font-size="10pt" font-family="Lato"  y="17">Code&#160;</text><text text-decoration="none" x="38" fill="rgb(255, 255, 255)" font-size="10pt" font-family="Lato"  y="17">Review</text><text text-decoration="none" x="80" fill="#4b4b4b" font-size="10pt" font-family="noto_regular"  y="17"></text></g></g><g id="4m3iqijyta"><g transform="translate(540 815)"><path d="M 50,0 L 0,47.375 L 50,94.75 L 100,47.375 L 50,0 Z" fill="rgba(81,198,155,1)" stroke="#40b789" stroke-width="1" stroke-linecap="round" stroke-linejoin="round"/></g><g transform="translate(547, 852.875) rotate(0, 43, 9.5)" width="86" height="19"><text text-decoration="none" x="4.5" fill="rgb(255, 255, 255)" font-size="10pt" font-family="Lato"  y="17">Is&#160;</text><text text-decoration="none" x="17.5" fill="rgb(255, 255, 255)" font-size="10pt" font-family="Lato"  y="17">Accepted&#160;</text><text text-decoration="none" x="75.5" fill="rgb(255, 255, 255)" font-size="10pt" font-family="Lato"  y="17">?</text><text text-decoration="none" x="81.5" fill="#4b4b4b" font-size="10pt" font-family="noto_regular"  y="17"></text></g></g><g id="kzeumlfzse"><g transform="translate(475 980)"><path d="M 234.50001525878903,88.77499999999999 L 234.50001525878903,0.5 L 0.5,0.5 L 0.5,88.77499999999999 Q 58.75000381469726,114.925 117.50000762939452,89.27499999999999 Q 176.25001144409177,63.125 234.00001525878903,89.27499999999999" fill="rgb(62, 139, 185)" stroke="rgb(54, 125, 165)" stroke-width="1" stroke-linecap="round" stroke-linejoin="round"/></g><g transform="translate(480.00000030436416, 1010.4499999999999) rotate(0, 0, 0)" width="225" height="19"><text text-decoration="none" x="0" fill="#ffffff" font-size="11pt" font-family="Lato"  y="17">Update&#160;</text><text text-decoration="none" x="54" fill="#ffffff" font-size="11pt" font-family="Lato"  y="17">Document&#160;</text><text text-decoration="none" x="130" fill="#ffffff" font-size="11pt" font-family="Lato"  y="17">in&#160;</text><text text-decoration="none" x="147" fill="#ffffff" font-size="11pt" font-family="Lato"  y="17">STEP&#160;&#160;</text><text text-decoration="none" x="188" fill="#ffffff" font-size="11pt" font-family="Lato"  y="17">1&#160;</text><text text-decoration="none" x="201" fill="#4b4b4b" font-size="10pt" font-family="noto_regular"  y="17"></text></g></g><g id="38s9jkwezn"><g transform="translate(475.1 1125)"><path d="M 229.49996948242188,57.197023129577644 L 229.49996948242188,0.5 L 11.999998474121094,0.5 L 11.999998474121094,57.197023129577644 Q 66.12499122619629,74.32474402374268 120.74998397827149,57.697023129577644 Q 175.37497673034667,40.5693022354126 228.99996948242188,57.697023129577644" fill="rgb(243, 181, 98)" stroke="rgb(208, 142, 54)" stroke-width="1" stroke-linecap="round" stroke-linejoin="round"/><path d="M 223.7499702453613,58.94730953948975 L 223.7499702453613,2.2502864099121096 L 6.249999237060547,2.2502864099121096 L 6.249999237060547,58.94730953948975 Q 60.374991989135744,76.07503043365479 114.99998474121094,59.44730953948975 Q 169.6249774932861,42.31958864532471 223.2499702453613,59.44730953948975" fill="rgb(243, 181, 98)" stroke="rgb(208, 142, 54)" stroke-width="1" stroke-linecap="round" stroke-linejoin="round"/><path d="M 217.99997100830078,60.69759594940186 L 217.99997100830078,4.000572819824219 L 0.5,4.000572819824219 L 0.5,60.69759594940186 Q 54.624992752075194,77.8253168435669 109.24998550415039,61.19759594940186 Q 163.87497825622557,44.069875055236814 217.49997100830078,61.19759594940186" fill="rgb(243, 181, 98)" stroke="rgb(208, 142, 54)" stroke-width="1" stroke-linecap="round" stroke-linejoin="round"/></g><g transform="translate(467.0499865096549, 1146.35) rotate(0, 116.5, 0)" width="233" height="37"><text text-decoration="none" x="10.5" fill="#ffffff" font-size="11pt" font-family="Lato"  y="16">Add&#160;</text><text text-decoration="none" x="42.5" fill="#ffffff" font-size="11pt" font-family="Lato"  y="16">list&#160;</text><text text-decoration="none" x="66.5" fill="#ffffff" font-size="11pt" font-family="Lato"  y="16">of&#160;</text><text text-decoration="none" x="84.5" fill="#ffffff" font-size="11pt" font-family="Lato"  y="16">objects&#160;</text><text text-decoration="none" x="137.5" fill="#ffffff" font-size="11pt" font-family="Lato"  y="16">to&#160;</text><text text-decoration="none" x="155.5" fill="#ffffff" font-size="11pt" font-family="Lato"  y="16">Deploy&#160;</text><text text-decoration="none" x="208.5" fill="#ffffff" font-size="11pt" font-family="Lato"  y="16">to</text><text text-decoration="none" x="222.5" fill="#ffffff" font-size="11pt" font-family="Lato"  y="16"></text><text text-decoration="none" x="47" fill="#ffffff" font-size="11pt" font-family="Lato"  y="38">Bradee&#x27;s&#160;</text><text text-decoration="none" x="110" fill="#ffffff" font-size="11pt" font-family="Lato"  y="38">Excelsheet&#160;</text><text text-decoration="none" x="186" fill="#4b4b4b" font-size="10pt" font-family="noto_regular"  y="38"></text></g></g><g id="1hplyu1ksx"><g transform="translate(530 1260)"><rect x="0" y="0" width="101" height="51" fill="rgba(62,139,185,1)" stroke="#367da5" stroke-width="1" stroke-linecap="round" stroke-linejoin="round"/></g><g transform="translate(532, 1268) rotate(0, 48.5, 17.5)" width="97" height="35"><text text-decoration="none" x="0" fill="rgb(255, 255, 255)" font-size="10pt" font-family="Lato"  y="14">Assign&#160;</text><text text-decoration="none" x="41" fill="rgb(255, 255, 255)" font-size="10pt" font-family="Lato"  y="14">Ticket&#160;&#160;</text><text text-decoration="none" x="82" fill="rgb(255, 255, 255)" font-size="10pt" font-family="Lato"  y="14">To&#160;</text><text text-decoration="none" x="11.5" fill="rgb(255, 255, 255)" font-size="10pt" font-family="Lato"  y="36">QA&#160;</text><text text-decoration="none" x="32.5" fill="rgb(255, 255, 255)" font-size="10pt" font-family="Lato"  y="36">Manager</text><text text-decoration="none" x="85.5" fill="#4b4b4b" font-size="10pt" font-family="noto_regular"  y="36"></text></g></g><g id="1c6viderw3"><g><path d="M 598.9,177.7 L 600,250" fill="none" stroke="#a0a0a0" stroke-width="1.5" stroke-linecap="round" stroke-linejoin="round"/><path d="M 600,250 L 606.0508520916972,236.8630089174002 L 599.867716888876,241.3053918779369 L 593.5522985749307,237.0531667164105 Z" fill="rgb(160,160,160)" stroke="#a0a0a0" stroke-width="1.5" stroke-linecap="round" stroke-linejoin="round"/></g></g><g id="1bxuky3fr6"><g><path d="M 595,340 L 595,440" fill="none" stroke="#a0a0a0" stroke-width="1.5" stroke-linecap="round" stroke-linejoin="round"/><path d="M 595,440 L 601.25,426.95657844965893 L 595,431.30438563310594 L 588.75,426.95657844965893 Z" fill="rgb(160,160,160)" stroke="#a0a0a0" stroke-width="1.5" stroke-linecap="round" stroke-linejoin="round"/></g></g><g id="blbi4aoct1"><g><path d="M 590,490 L 590,580" fill="none" stroke="#a0a0a0" stroke-width="1.5" stroke-linecap="round" stroke-linejoin="round"/><path d="M 590,580 L 596.25,566.9565784496589 L 590,571.304385633106 L 583.75,566.9565784496589 Z" fill="rgb(160,160,160)" stroke="#a0a0a0" stroke-width="1.5" stroke-linecap="round" stroke-linejoin="round"/></g></g><g id="g4yk4rouam"><g><path d="M 591.5999999999999,630 L 588.7499999999999,720" fill="none" stroke="#a0a0a0" stroke-width="1.5" stroke-linecap="round" stroke-linejoin="round"/><path d="M 588.7499999999999,720 L 595.4097034178051,707.1609308699277 L 589.0252231623596,711.3087422412729 L 582.9159660692737,706.7652958538908 Z" fill="rgb(160,160,160)" stroke="#a0a0a0" stroke-width="1.5" stroke-linecap="round" stroke-linejoin="round"/></g></g><g id="6thm2wdlgu"><g><path d="M 589.65,772 L 590,820" fill="none" stroke="#a0a0a0" stroke-width="1.5" stroke-linecap="round" stroke-linejoin="round"/><path d="M 590,820 L 596.1547281015055,806.9113534795823 L 589.9365961640926,811.3046167898518 L 583.6550603907725,807.0024968899731 Z" fill="rgb(160,160,160)" stroke="#a0a0a0" stroke-width="1.5" stroke-linecap="round" stroke-linejoin="round"/></g></g><g id="1wxm0otrhq"><g><path d="M 590,905 L 587.3999999999999,982.7999999999998" fill="none" stroke="#a0a0a0" stroke-width="1.5" stroke-linecap="round" stroke-linejoin="round"/><path d="M 587.3999999999999,982.7999999999998 L 594.082168021273,969.9726083604116 L 587.6904367985433,974.1092373358957 L 581.5891423743567,969.5551036472756 Z" fill="rgb(160,160,160)" stroke="#a0a0a0" stroke-width="1.5" stroke-linecap="round" stroke-linejoin="round"/></g></g><g id="7g6rnq3y67"><g><path d="M 584.35,1073.6 L 585,1125" fill="none" stroke="#a0a0a0" stroke-width="1.5" stroke-linecap="round" stroke-linejoin="round"/><path d="M 585,1125 L 591.0845675076465,1111.8785906250587 L 584.8900447967078,1116.3050808473567 L 578.585566882477,1112.0366519170113 Z" fill="rgb(160,160,160)" stroke="#a0a0a0" stroke-width="1.5" stroke-linecap="round" stroke-linejoin="round"/></g></g><g id="2i0o1ta0ks"><g><path d="M 584.6999999999999,1189.2 L 585,1260" fill="none" stroke="#a0a0a0" stroke-width="1.5" stroke-linecap="round" stroke-linejoin="round"/><path d="M 585,1260 L 591.1946756533717,1246.9302127297562 L 584.9631545071832,1251.3044636952404 L 578.6947878681779,1246.9831783559648 Z" fill="rgb(160,160,160)" stroke="#a0a0a0" stroke-width="1.5" stroke-linecap="round" stroke-linejoin="round"/></g></g><g id="2g7qaq2gyg"><g><path d="M 542.55,862.55 L 395,622.5 L 595,380" fill="none" stroke="#a0a0a0" stroke-width="1.5" stroke-linecap="round" stroke-linejoin="round"/><path d="M 595,380 L 581.9565784496589,373.75 L 586.304385633106,380 L 581.9565784496589,386.25 Z" fill="rgb(160,160,160)" stroke="#a0a0a0" stroke-width="1.5" stroke-linecap="round" stroke-linejoin="round"/></g></g><g id="2ndx25lpi1"><g transform="translate(485 925)"><rect x="0" y="0" width="150" height="37" fill="rgba(255,255,255,0.01)" stroke="rgba(255,255,255,0.01)" stroke-width="NaN" stroke-linecap="round" stroke-linejoin="round"/></g><g transform="translate(549.5, 934) rotate(0, 10.5, 9.5)" width="21" height="19"><text text-decoration="none" x="0.5" fill="rgb(75, 75, 75)" font-size="10pt" font-family="Lato"  y="17">Yes</text><text text-decoration="none" x="20.5" fill="#4b4b4b" font-size="10pt" font-family="noto_regular"  y="17"></text></g></g><g id="7qeid8423d"><g transform="translate(433.6 835.2)"><rect x="0" y="0" width="150" height="37" fill="rgba(255,255,255,0.01)" stroke="rgba(255,255,255,0.01)" stroke-width="NaN" stroke-linecap="round" stroke-linejoin="round"/></g><g transform="translate(499.6, 844.2) rotate(0, 9, 9.5)" width="18" height="19"><text text-decoration="none" x="0" fill="rgb(75, 75, 75)" font-size="10pt" font-family="Lato"  y="17">No</text><text text-decoration="none" x="18" fill="#4b4b4b" font-size="10pt" font-family="noto_regular"  y="17"></text></g></g><g id="ci34y2mef6"><g transform="translate(805.55 248)"><rect x="0" y="0" width="150" height="37" fill="rgba(255,255,255,0.01)" stroke="rgba(255,255,255,0.01)" stroke-width="NaN" stroke-linecap="round" stroke-linejoin="round"/></g><g transform="translate(808.05, 233) rotate(0, 72.5, 33.5)" width="145" height="67"><text text-decoration="none" x="19" fill="rgb(75, 75, 75)" font-size="10pt" font-family="Lato"  y="14">1.&#160;</text><text text-decoration="none" x="32" fill="rgb(75, 75, 75)" font-size="10pt" font-family="Lato"  y="14">Bug&#160;</text><text text-decoration="none" x="58" fill="rgb(75, 75, 75)" font-size="10pt" font-family="Lato"  y="14">Description</text><text text-decoration="none" x="126" fill="rgb(75, 75, 75)" font-size="10pt" font-family="Lato"  y="14"></text><text text-decoration="none" x="8" fill="rgb(75, 75, 75)" font-size="10pt" font-family="Lato"  y="33">2.&#160;</text><text text-decoration="none" x="21" fill="rgb(75, 75, 75)" font-size="10pt" font-family="Lato"  y="33">Root&#160;</text><text text-decoration="none" x="53" fill="rgb(75, 75, 75)" font-size="10pt" font-family="Lato"  y="33">cause&#160;</text><text text-decoration="none" x="90" fill="rgb(75, 75, 75)" font-size="10pt" font-family="Lato"  y="33">analysis</text><text text-decoration="none" x="137" fill="rgb(75, 75, 75)" font-size="10pt" font-family="Lato"  y="33"></text><text text-decoration="none" x="7.5" fill="rgb(75, 75, 75)" font-size="10pt" font-family="Lato"  y="52">3.Approach&#160;</text><text text-decoration="none" x="78.5" fill="rgb(75, 75, 75)" font-size="10pt" font-family="Lato"  y="52">to&#160;</text><text text-decoration="none" x="94.5" fill="rgb(75, 75, 75)" font-size="10pt" font-family="Lato"  y="52">resolve&#160;</text><text text-decoration="none" x="57.5" fill="rgb(75, 75, 75)" font-size="10pt" font-family="Lato"  y="74">issue</text><text text-decoration="none" x="87.5" fill="#4b4b4b" font-size="10pt" font-family="noto_regular"  y="74"></text></g></g><g id="2gohuoish8"><g transform="translate(820 980)"><rect x="0" y="0" width="150" height="83.72988891601562" fill="rgba(255,255,255,0.01)" stroke="rgba(255,255,255,0.01)" stroke-width="NaN" stroke-linecap="round" stroke-linejoin="round"/></g><g transform="translate(823, 972.3649444580078) rotate(0, 72, 49.5)" width="144" height="99"><text text-decoration="none" x="8.5" fill="rgb(75, 75, 75)" font-size="10pt" font-family="Lato"  y="14">1.&#160;</text><text text-decoration="none" x="21.5" fill="rgb(75, 75, 75)" font-size="10pt" font-family="Lato"  y="14">Describe&#160;</text><text text-decoration="none" x="75.5" fill="rgb(75, 75, 75)" font-size="10pt" font-family="Lato"  y="14">what&#160;</text><text text-decoration="none" x="108.5" fill="rgb(75, 75, 75)" font-size="10pt" font-family="Lato"  y="14">fix&#160;</text><text text-decoration="none" x="126.5" fill="rgb(75, 75, 75)" font-size="10pt" font-family="Lato"  y="14">is&#160;</text><text text-decoration="none" x="56.5" fill="rgb(75, 75, 75)" font-size="10pt" font-family="Lato"  y="33">done</text><text text-decoration="none" x="87.5" fill="rgb(75, 75, 75)" font-size="10pt" font-family="Lato"  y="33"></text><text text-decoration="none" x="1.5" fill="rgb(75, 75, 75)" font-size="10pt" font-family="Lato"  y="52">2.&#160;</text><text text-decoration="none" x="14.5" fill="rgb(75, 75, 75)" font-size="10pt" font-family="Lato"  y="52">Add&#160;</text><text text-decoration="none" x="41.5" fill="rgb(75, 75, 75)" font-size="10pt" font-family="Lato"  y="52">SQL&#160;</text><text text-decoration="none" x="68.5" fill="rgb(75, 75, 75)" font-size="10pt" font-family="Lato"  y="52">Scripts&#160;</text><text text-decoration="none" x="111.5" fill="rgb(75, 75, 75)" font-size="10pt" font-family="Lato"  y="52">or&#160;</text><text text-decoration="none" x="127.5" fill="rgb(75, 75, 75)" font-size="10pt" font-family="Lato"  y="52">SP&#160;</text><text text-decoration="none" x="22.5" fill="rgb(75, 75, 75)" font-size="10pt" font-family="Lato"  y="71">if&#160;</text><text text-decoration="none" x="32.5" fill="rgb(75, 75, 75)" font-size="10pt" font-family="Lato"  y="71">config&#160;</text><text text-decoration="none" x="72.5" fill="rgb(75, 75, 75)" font-size="10pt" font-family="Lato"  y="71">changes&#160;</text><text text-decoration="none" x="49.5" fill="rgb(75, 75, 75)" font-size="10pt" font-family="Lato"  y="90">needed</text><text text-decoration="none" x="94.5" fill="rgb(75, 75, 75)" font-size="10pt" font-family="Lato"  y="90"></text><text text-decoration="none" x="72" fill="#4b4b4b" font-size="10pt" font-family="noto_regular"  y="112"></text></g></g><g id="1g8uyw2m19"><g transform="translate(605.55 517.55)"><rect x="0" y="0" width="150" height="37" fill="rgba(255,255,255,0.01)" stroke="rgba(255,255,255,0.01)" stroke-width="NaN" stroke-linecap="round" stroke-linejoin="round"/></g><g transform="translate(628.55, 518.55) rotate(0, 52, 17.5)" width="104" height="35"><text text-decoration="none" x="7.5" fill="rgb(75, 75, 75)" font-weight="bold" font-size="10pt" font-family="Lato"  y="14">[Status]&#160;</text><text text-decoration="none" x="60.5" fill="rgb(75, 75, 75)" font-weight="bold" font-size="10pt" font-family="Lato"  y="14">:&#160;</text><text text-decoration="none" x="67.5" fill="rgb(75, 75, 75)" font-weight="bold" font-size="10pt" font-family="Lato"  y="14">Unit&#160;</text><text text-decoration="none" x="28" fill="rgb(75, 75, 75)" font-weight="bold" font-size="10pt" font-family="Lato"  y="36">Testing</text><text text-decoration="none" x="76" fill="#4b4b4b" font-size="10pt" font-family="noto_regular"  y="36"></text></g></g><g id="agv09jkmyl"><g transform="translate(605 645)"><rect x="0" y="0" width="220.00000476837158" height="51.49998474121094" fill="rgba(255,255,255,0.01)" stroke="rgba(255,255,255,0.01)" stroke-width="NaN" stroke-linecap="round" stroke-linejoin="round"/></g><g transform="translate(631.0000023841858, 653.2499923706055) rotate(0, 84, 17.5)" width="168" height="35"><text text-decoration="none" x="13" fill="rgb(75, 75, 75)" font-weight="bold" font-size="10pt" font-family="Lato"  y="14">[Status]&#160;</text><text text-decoration="none" x="66" fill="rgb(75, 75, 75)" font-weight="bold" font-size="10pt" font-family="Lato"  y="14">:&#160;</text><text text-decoration="none" x="73" fill="rgb(75, 75, 75)" font-weight="bold" font-size="10pt" font-family="Lato"  y="14">Code&#160;</text><text text-decoration="none" x="108" fill="rgb(75, 75, 75)" font-weight="bold" font-size="10pt" font-family="Lato"  y="14">Review&#160;</text><text text-decoration="none" x="55.5" fill="rgb(75, 75, 75)" font-weight="bold" font-size="10pt" font-family="Lato"  y="36">Assigned</text><text text-decoration="none" x="112.5" fill="#4b4b4b" font-size="10pt" font-family="noto_regular"  y="36"></text></g></g><g id="lx24ntxllj"><g transform="translate(585 905)"><rect x="0" y="0" width="244.99881863594055" height="45.729461669921875" fill="rgba(255,255,255,0.01)" stroke="rgba(255,255,255,0.01)" stroke-width="NaN" stroke-linecap="round" stroke-linejoin="round"/></g><g transform="translate(623.4994093179703, 910.3647308349609) rotate(0, 84, 17.5)" width="168" height="35"><text text-decoration="none" x="13" fill="rgb(75, 75, 75)" font-weight="bold" font-size="10pt" font-family="Lato"  y="14">[Status]&#160;</text><text text-decoration="none" x="66" fill="rgb(75, 75, 75)" font-weight="bold" font-size="10pt" font-family="Lato"  y="14">:&#160;</text><text text-decoration="none" x="73" fill="rgb(75, 75, 75)" font-weight="bold" font-size="10pt" font-family="Lato"  y="14">Code&#160;</text><text text-decoration="none" x="108" fill="rgb(75, 75, 75)" font-weight="bold" font-size="10pt" font-family="Lato"  y="14">Review&#160;</text><text text-decoration="none" x="48.5" fill="rgb(75, 75, 75)" font-weight="bold" font-size="10pt" font-family="Lato"  y="36">Completed</text><text text-decoration="none" x="119.5" fill="#4b4b4b" font-size="10pt" font-family="noto_regular"  y="36"></text></g></g><g id="c3twe4wvha"><g transform="translate(140 615)"><rect x="0" y="0" width="244.99881863594055" height="45.729461669921875" fill="rgba(255,255,255,0.01)" stroke="rgba(255,255,255,0.01)" stroke-width="NaN" stroke-linecap="round" stroke-linejoin="round"/></g><g transform="translate(140.99940931797028, 628.3647308349609) rotate(0, 121.5, 9.5)" width="243" height="19"><text text-decoration="none" x="18" fill="rgb(75, 75, 75)" font-weight="bold" font-size="10pt" font-family="Lato"  y="17">[Status]&#160;</text><text text-decoration="none" x="71" fill="rgb(75, 75, 75)" font-weight="bold" font-size="10pt" font-family="Lato"  y="17">:&#160;</text><text text-decoration="none" x="78" fill="rgb(75, 75, 75)" font-weight="bold" font-size="10pt" font-family="Lato"  y="17">Code&#160;</text><text text-decoration="none" x="113" fill="rgb(75, 75, 75)" font-weight="bold" font-size="10pt" font-family="Lato"  y="17">Review&#160;</text><text text-decoration="none" x="163" fill="rgb(75, 75, 75)" font-weight="bold" font-size="10pt" font-family="Lato"  y="17">Feedback</text><text text-decoration="none" x="225" fill="#4b4b4b" font-size="10pt" font-family="noto_regular"  y="17"></text></g></g><g id="2pn3rjl5ax"><g transform="translate(535 1205)"><rect x="0" y="0" width="244.99881863594055" height="45.729461669921875" fill="rgba(255,255,255,0.01)" stroke="rgba(255,255,255,0.01)" stroke-width="NaN" stroke-linecap="round" stroke-linejoin="round"/></g><g transform="translate(587.4994093179703, 1218.364730834961) rotate(0, 70, 9.5)" width="140" height="19"><text text-decoration="none" x="11" fill="rgb(75, 75, 75)" font-weight="bold" font-size="10pt" font-family="Lato"  y="17">[Status]&#160;</text><text text-decoration="none" x="64" fill="rgb(75, 75, 75)" font-weight="bold" font-size="10pt" font-family="Lato"  y="17">:&#160;</text><text text-decoration="none" x="71" fill="rgb(75, 75, 75)" font-weight="bold" font-size="10pt" font-family="Lato"  y="17">Resolved</text><text text-decoration="none" x="129" fill="#4b4b4b" font-size="10pt" font-family="noto_regular"  y="17"></text></g></g></svg>